[ConversionWorker] Logging FFmpeg output to: ffmpeg_logs\ffmpeg_conversion_高冷17_wav_20250525_174115.log\n[ConversionWorker] Getting duration with command: ffprobe -v error -show_entries format=duration -of default=noprint_wrappers=1:nokey=1 Z:\Story\高冷\高冷17.wav\n[ConversionWorker] Duration for 高冷17.wav: 3462560 ms\n[ConversionWorker] Starting FFmpeg for 高冷17.wav: ffmpeg -i Z:\Story\高冷\高冷17.wav -b:a 128k -vn -y -loglevel error -stats -progress pipe:1 Z:\Story\高冷\高冷17.mp3\n[ConversionWorker] FFmpeg process started. PID: 23456\n[STDOUT RAW] bitrate= 123.7kbits/s\n[STDOUT RAW] total_size=76460\n[STDOUT RAW] out_time_us=4945958\n[STDOUT RAW] out_time_ms=4945958\n[STDOUT RAW] out_time=00:00:04.945958\n[STDOUT RAW] dup_frames=0\n[STDOUT RAW] drop_frames=0\n[STDOUT RAW] speed=9.65x\n[STDOUT RAW] progress=continue\n[STDERR RAW] size=      75KiB time=00:00:04.94 bitrate= 123.7kbits/s speed=9.65x\n[STDOUT RAW] bitrate= 125.9kbits/s\n[STDOUT RAW] total_size=160172\n[STDOUT RAW] out_time_us=10177958\n[STDOUT RAW] out_time_ms=10177958\n[STDOUT RAW] out_time=00:00:10.177958\n[STDOUT RAW] dup_frames=0\n[STDOUT RAW] drop_frames=0\n[STDOUT RAW] speed=9.83x\n[STDOUT RAW] progress=continue\n[STDERR RAW] size=     156KiB time=00:00:10.17 bitrate= 125.9kbits/s speed=9.83x\n[STDOUT RAW] bitrate= 126.6kbits/s\n[STDOUT RAW] total_size=241964\n[STDOUT RAW] out_time_us=15289958\n[STDOUT RAW] out_time_ms=15289958\n[STDOUT RAW] out_time=00:00:15.289958\n[STDOUT RAW] dup_frames=0\n[STDOUT RAW] drop_frames=0\n[STDOUT RAW] speed=9.89x\n[STDOUT RAW] progress=continue\n[STDERR RAW] size=     236KiB time=00:00:15.28 bitrate= 126.6kbits/s speed=9.89x\n[STDOUT RAW] bitrate= 119.5kbits/s\n[STDOUT RAW] total_size=1572864\n[STDOUT RAW] out_time_us=105313958\n[STDOUT RAW] out_time_ms=105313958\n[STDOUT RAW] out_time=00:01:45.313958\n[STDOUT RAW] dup_frames=0\n[STDOUT RAW] drop_frames=0\n[STDOUT RAW] speed=51.2x\n[STDOUT RAW] progress=continue\n[STDERR RAW] size=    1536KiB time=00:01:45.31 bitrate= 119.5kbits/s speed=51.2x\n[STDOUT RAW] bitrate= 125.7kbits/s\n[STDOUT RAW] total_size=3407872\n[STDOUT RAW] out_time_us=216817958\n[STDOUT RAW] out_time_ms=216817958\n[STDOUT RAW] out_time=00:03:36.817958\n[STDOUT RAW] dup_frames=0\n[STDOUT RAW] drop_frames=0\n[STDOUT RAW] speed=84.4x\n[STDOUT RAW] progress=continue\n[STDERR RAW] size=    3328KiB time=00:03:36.81 bitrate= 125.7kbits/s speed=84.4x\n[STDOUT RAW] bitrate= 122.4kbits/s\n[STDOUT RAW] total_size=4980736\n[STDOUT RAW] out_time_us=325657958\n[STDOUT RAW] out_time_ms=325657958\n[STDOUT RAW] out_time=00:05:25.657958\n[STDOUT RAW] dup_frames=0\n[STDOUT RAW] drop_frames=0\n[STDOUT RAW] speed= 105x\n[STDOUT RAW] progress=continue\n[STDERR RAW] size=    4864KiB time=00:05:25.65 bitrate= 122.4kbits/s speed= 105x\n[STDOUT RAW] bitrate= 127.8kbits/s\n[STDOUT RAW] total_size=6815744\n[STDOUT RAW] out_time_us=426625958\n[STDOUT RAW] out_time_ms=426625958\n[STDOUT RAW] out_time=00:07:06.625958\n[STDOUT RAW] dup_frames=0\n[STDOUT RAW] drop_frames=0\n[STDOUT RAW] speed= 118x\n[STDOUT RAW] progress=continue\n[STDERR RAW] size=    6656KiB time=00:07:06.62 bitrate= 127.8kbits/s speed= 118x\n[STDOUT RAW] bitrate= 124.1kbits/s\n[STDOUT RAW] total_size=8126464\n[STDOUT RAW] out_time_us=523825958\n[STDOUT RAW] out_time_ms=523825958\n[STDOUT RAW] out_time=00:08:43.825958\n[STDOUT RAW] dup_frames=0\n[STDOUT RAW] drop_frames=0\n[STDOUT RAW] speed= 127x\n[STDOUT RAW] progress=continue\n[STDERR RAW] size=    7936KiB time=00:08:43.82 bitrate= 124.1kbits/s speed= 127x\n[STDOUT RAW] bitrate= 124.9kbits/s\n[STDOUT RAW] total_size=9699328\n[STDOUT RAW] out_time_us=621097958\n[STDOUT RAW] out_time_ms=621097958\n[STDOUT RAW] out_time=00:10:21.097958\n[STDOUT RAW] dup_frames=0\n[STDOUT RAW] drop_frames=0\n[STDOUT RAW] speed= 134x\n[STDOUT RAW] progress=continue\n[STDERR RAW] size=    9472KiB time=00:10:21.09 bitrate= 124.9kbits/s speed= 134x\n[STDOUT RAW] bitrate= 127.5kbits/s\n[STDOUT RAW] total_size=11534336\n[STDOUT RAW] out_time_us=723793958\n[STDOUT RAW] out_time_ms=723793958\n[STDOUT RAW] out_time=00:12:03.793958\n[STDOUT RAW] dup_frames=0\n[STDOUT RAW] drop_frames=0\n[STDOUT RAW] speed= 140x\n[STDOUT RAW] progress=continue\n[STDERR RAW] size=   11264KiB time=00:12:03.79 bitrate= 127.5kbits/s speed= 140x\n[STDOUT RAW] bitrate= 127.8kbits/s\n[STDOUT RAW] total_size=13107200\n[STDOUT RAW] out_time_us=820705958\n[STDOUT RAW] out_time_ms=820705958\n[STDOUT RAW] out_time=00:13:40.705958\n[STDOUT RAW] dup_frames=0\n[STDOUT RAW] drop_frames=0\n[STDOUT RAW] speed= 145x\n[STDOUT RAW] progress=continue\n[STDERR RAW] size=   12800KiB time=00:13:40.70 bitrate= 127.8kbits/s speed= 145x\n[STDOUT RAW] bitrate= 126.0kbits/s\n[STDOUT RAW] total_size=14417920\n[STDOUT RAW] out_time_us=915241958\n[STDOUT RAW] out_time_ms=915241958\n[STDOUT RAW] out_time=00:15:15.241958\n[STDOUT RAW] dup_frames=0\n[STDOUT RAW] drop_frames=0\n[STDOUT RAW] speed= 148x\n[STDOUT RAW] progress=continue\n[STDERR RAW] size=   14080KiB time=00:15:15.24 bitrate= 126.0kbits/s speed= 148x\n[STDOUT RAW] bitrate= 126.6kbits/s\n[STDOUT RAW] total_size=15990784\n[STDOUT RAW] out_time_us=1010185958\n[STDOUT RAW] out_time_ms=1010185958\n[STDOUT RAW] out_time=00:16:50.185958\n[STDOUT RAW] dup_frames=0\n[STDOUT RAW] drop_frames=0\n[STDOUT RAW] speed= 151x\n[STDOUT RAW] progress=continue\n[STDERR RAW] size=   15616KiB time=00:16:50.18 bitrate= 126.6kbits/s speed= 151x\n[STDOUT RAW] bitrate= 126.3kbits/s\n[STDOUT RAW] total_size=17301504\n[STDOUT RAW] out_time_us=1095601958\n[STDOUT RAW] out_time_ms=1095601958\n[STDOUT RAW] out_time=00:18:15.601958\n[STDOUT RAW] dup_frames=0\n[STDOUT RAW] drop_frames=0\n[STDOUT RAW] speed= 152x\n[STDOUT RAW] progress=continue\n[STDERR RAW] size=   16896KiB time=00:18:15.60 bitrate= 126.3kbits/s speed= 152x\n[STDOUT RAW] bitrate= 126.5kbits/s\n[STDOUT RAW] total_size=18612224\n[STDOUT RAW] out_time_us=1177153958\n[STDOUT RAW] out_time_ms=1177153958\n[STDOUT RAW] out_time=00:19:37.153958\n[STDOUT RAW] dup_frames=0\n[STDOUT RAW] drop_frames=0\n[STDOUT RAW] speed= 152x\n[STDOUT RAW] progress=continue\n[STDERR RAW] size=   18176KiB time=00:19:37.15 bitrate= 126.5kbits/s speed= 152x\n[STDOUT RAW] bitrate= 127.2kbits/s\n[STDOUT RAW] total_size=20185088\n[STDOUT RAW] out_time_us=1269817958\n[STDOUT RAW] out_time_ms=1269817958\n[STDOUT RAW] out_time=00:21:09.817958\n[STDOUT RAW] dup_frames=0\n[STDOUT RAW] drop_frames=0\n[STDOUT RAW] speed= 154x\n[STDOUT RAW] progress=continue\n[STDERR RAW] size=   19712KiB time=00:21:09.81 bitrate= 127.2kbits/s speed= 154x\n[STDOUT RAW] bitrate= 126.7kbits/s\n[STDOUT RAW] total_size=21495808\n[STDOUT RAW] out_time_us=1356865958\n[STDOUT RAW] out_time_ms=1356865958\n[STDOUT RAW] out_time=00:22:36.865958\n[STDOUT RAW] dup_frames=0\n[STDOUT RAW] drop_frames=0\n[STDOUT RAW] speed= 155x\n[STDOUT RAW] progress=continue\n[STDOUT RAW] bitrate= 126.8kbits/s\n[STDERR RAW] size=   20992KiB time=00:22:36.86 bitrate= 126.7kbits/s speed= 155x\n[STDOUT RAW] total_size=23068672\n[STDOUT RAW] out_time_us=1455793958\n[STDOUT RAW] out_time_ms=1455793958\n[STDOUT RAW] out_time=00:24:15.793958\n[STDOUT RAW] dup_frames=0\n[STDOUT RAW] drop_frames=0\n[STDOUT RAW] speed= 157x\n[STDOUT RAW] progress=continue\n[STDERR RAW] size=   22528KiB time=00:24:15.79 bitrate= 126.8kbits/s speed= 157x\n[STDOUT RAW] bitrate= 126.6kbits/s\n[STDOUT RAW] total_size=24641536\n[STDOUT RAW] out_time_us=1556617958\n[STDOUT RAW] out_time_ms=1556617958\n[STDOUT RAW] out_time=00:25:56.617958\n[STDOUT RAW] dup_frames=0\n[STDOUT RAW] drop_frames=0\n[STDOUT RAW] speed= 159x\n[STDOUT RAW] progress=continue\n[STDERR RAW] size=   24064KiB time=00:25:56.61 bitrate= 126.6kbits/s speed= 159x\n[STDOUT RAW] bitrate= 127.3kbits/s\n[STDOUT RAW] total_size=26214400\n[STDOUT RAW] out_time_us=1647385958\n[STDOUT RAW] out_time_ms=1647385958\n[STDOUT RAW] out_time=00:27:27.385958\n[STDOUT RAW] dup_frames=0\n[STDOUT RAW] drop_frames=0\n[STDOUT RAW] speed= 160x\n[STDOUT RAW] progress=continue\n[STDERR RAW] size=   25600KiB time=00:27:27.38 bitrate= 127.3kbits/s speed= 160x\n[STDOUT RAW] bitrate= 126.8kbits/s\n[STDOUT RAW] total_size=27525120\n[STDOUT RAW] out_time_us=1736833958\n[STDOUT RAW] out_time_ms=1736833958\n[STDOUT RAW] out_time=00:28:56.833958\n[STDOUT RAW] dup_frames=0\n[STDOUT RAW] drop_frames=0\n[STDOUT RAW] speed= 160x\n[STDOUT RAW] progress=continue\n[STDERR RAW] size=   26880KiB time=00:28:56.83 bitrate= 126.8kbits/s speed= 160x\n[STDOUT RAW] bitrate= 127.0kbits/s\n[STDOUT RAW] total_size=29097984\n[STDOUT RAW] out_time_us=1833169958\n[STDOUT RAW] out_time_ms=1833169958\n[STDOUT RAW] out_time=00:30:33.169958\n[STDOUT RAW] dup_frames=0\n[STDOUT RAW] drop_frames=0\n[STDOUT RAW] speed= 162x\n[STDOUT RAW] progress=continue\n[STDERR RAW] size=   28416KiB time=00:30:33.16 bitrate= 127.0kbits/s speed= 162x\n[STDOUT RAW] bitrate= 126.9kbits/s\n[STDOUT RAW] total_size=30670848\n[STDOUT RAW] out_time_us=1933081958\n[STDOUT RAW] out_time_ms=1933081958\n[STDOUT RAW] out_time=00:32:13.081958\n[STDOUT RAW] dup_frames=0\n[STDOUT RAW] drop_frames=0\n[STDOUT RAW] speed= 163x\n[STDOUT RAW] progress=continue\n[STDERR RAW] size=   29952KiB time=00:32:13.08 bitrate= 126.9kbits/s speed= 163x\n[STDOUT RAW] bitrate= 127.6kbits/s\n[STDOUT RAW] total_size=32505856\n[STDOUT RAW] out_time_us=2037841958\n[STDOUT RAW] out_time_ms=2037841958\n[STDOUT RAW] out_time=00:33:57.841958\n[STDOUT RAW] dup_frames=0\n[STDOUT RAW] drop_frames=0\n[STDOUT RAW] speed= 165x\n[STDOUT RAW] progress=continue\n[STDERR RAW] size=   31744KiB time=00:33:57.84 bitrate= 127.6kbits/s speed= 165x\n[STDOUT RAW] bitrate= 127.1kbits/s\n[STDOUT RAW] total_size=34078720\n[STDOUT RAW] out_time_us=2145817958\n[STDOUT RAW] out_time_ms=2145817958\n[STDOUT RAW] out_time=00:35:45.817958\n[STDOUT RAW] dup_frames=0\n[STDOUT RAW] drop_frames=0\n[STDOUT RAW] speed= 166x\n[STDOUT RAW] progress=continue\n[STDOUT RAW] bitrate= 127.5kbits/s\n[STDOUT RAW] total_size=35913728\n[STDOUT RAW] out_time_us=2252665958\n[STDOUT RAW] out_time_ms=2252665958\n[STDERR RAW] size=   33280KiB time=00:35:45.81 bitrate= 127.1kbits/s speed= 166x\n[STDOUT RAW] out_time=00:37:32.665958\n[STDOUT RAW] dup_frames=0\n[STDOUT RAW] drop_frames=0\n[STDOUT RAW] speed= 168x\n[STDOUT RAW] progress=continue\n[STDERR RAW] size=   35072KiB time=00:37:32.66 bitrate= 127.5kbits/s speed= 168x\n[STDOUT RAW] bitrate= 127.1kbits/s\n[STDOUT RAW] total_size=37486592\n[STDOUT RAW] out_time_us=2359417958\n[STDOUT RAW] out_time_ms=2359417958\n[STDOUT RAW] out_time=00:39:19.417958\n[STDOUT RAW] dup_frames=0\n[STDOUT RAW] drop_frames=0\n[STDOUT RAW] speed= 170x\n[STDOUT RAW] progress=continue\n[STDERR RAW] size=   36608KiB time=00:39:19.41 bitrate= 127.1kbits/s speed= 170x\n[STDOUT RAW] bitrate= 128.0kbits/s\n[STDOUT RAW] total_size=39321600\n[STDOUT RAW] out_time_us=2457841958\n[STDOUT RAW] out_time_ms=2457841958\n[STDOUT RAW] out_time=00:40:57.841958\n[STDOUT RAW] dup_frames=0\n[STDOUT RAW] drop_frames=0\n[STDOUT RAW] speed= 170x\n[STDOUT RAW] progress=continue\n[STDERR RAW] size=   38400KiB time=00:40:57.84 bitrate= 128.0kbits/s speed= 170x\n[STDOUT RAW] bitrate= 127.5kbits/s\n[STDOUT RAW] total_size=40894464\n[STDOUT RAW] out_time_us=2565937958\n[STDOUT RAW] out_time_ms=2565937958\n[STDOUT RAW] out_time=00:42:45.937958\n[STDOUT RAW] dup_frames=0\n[STDOUT RAW] drop_frames=0\n[STDOUT RAW] speed= 172x\n[STDOUT RAW] progress=continue\n[STDERR RAW] size=   39936KiB time=00:42:45.93 bitrate= 127.5kbits/s speed= 172x\n[STDOUT RAW] bitrate= 127.2kbits/s\n[STDOUT RAW] total_size=42467328\n[STDOUT RAW] out_time_us=2670721958\n[STDOUT RAW] out_time_ms=2670721958\n[STDOUT RAW] out_time=00:44:30.721958\n[STDOUT RAW] dup_frames=0\n[STDOUT RAW] drop_frames=0\n[STDOUT RAW] speed= 173x\n[STDOUT RAW] progress=continue\n[STDERR RAW] size=   41472KiB time=00:44:30.72 bitrate= 127.2kbits/s speed= 173x\n[STDOUT RAW] bitrate= 127.6kbits/s\n[STDOUT RAW] total_size=44302336\n[STDOUT RAW] out_time_us=2778433958\n[STDOUT RAW] out_time_ms=2778433958\n[STDOUT RAW] out_time=00:46:18.433958\n[STDOUT RAW] dup_frames=0\n[STDOUT RAW] drop_frames=0\n[STDOUT RAW] speed= 174x\n[STDOUT RAW] progress=continue\n[STDERR RAW] size=   43264KiB time=00:46:18.43 bitrate= 127.6kbits/s speed= 174x\n[STDOUT RAW] bitrate= 127.3kbits/s\n[STDOUT RAW] total_size=45875200\n[STDOUT RAW] out_time_us=2883721958\n[STDOUT RAW] out_time_ms=2883721958\n[STDOUT RAW] out_time=00:48:03.721958\n[STDOUT RAW] dup_frames=0\n[STDOUT RAW] drop_frames=0\n[STDOUT RAW] speed= 175x\n[STDOUT RAW] progress=continue\n[STDOUT RAW] bitrate= 127.8kbits/s\n[STDOUT RAW] total_size=47710208\n[STDOUT RAW] out_time_us=2986825958\n[STDOUT RAW] out_time_ms=2986825958\n[STDOUT RAW] out_time=00:49:46.825958\n[STDOUT RAW] dup_frames=0\n[STDOUT RAW] drop_frames=0\n[STDOUT RAW] speed= 175x\n[STDOUT RAW] progress=continue\n[STDERR RAW] size=   44800KiB time=00:48:03.72 bitrate= 127.3kbits/s speed= 175x\n[STDERR RAW] size=   46592KiB time=00:49:46.82 bitrate= 127.8kbits/s speed= 175x\n[STDOUT RAW] bitrate= 127.6kbits/s\n[STDOUT RAW] total_size=49283072\n[STDOUT RAW] out_time_us=3090433958\n[STDOUT RAW] out_time_ms=3090433958\n[STDOUT RAW] out_time=00:51:30.433958\n[STDOUT RAW] dup_frames=0\n[STDOUT RAW] drop_frames=0\n[STDOUT RAW] speed= 176x\n[STDOUT RAW] progress=continue\n[STDERR RAW] size=   48128KiB time=00:51:30.43 bitrate= 127.6kbits/s speed= 176x\n[STDOUT RAW] bitrate= 127.3kbits/s\n[STDOUT RAW] total_size=50855936\n[STDOUT RAW] out_time_us=3195001958\n[STDOUT RAW] out_time_ms=3195001958\n[STDOUT RAW] out_time=00:53:15.001958\n[STDOUT RAW] dup_frames=0\n[STDOUT RAW] drop_frames=0\n[STDOUT RAW] speed= 177x\n[STDOUT RAW] progress=continue\n[STDERR RAW] size=   49664KiB time=00:53:15.00 bitrate= 127.3kbits/s speed= 177x\n[STDOUT RAW] bitrate= 127.4kbits/s\n[STDOUT RAW] total_size=52428800\n[STDOUT RAW] out_time_us=3292777958\n[STDOUT RAW] out_time_ms=3292777958\n[STDOUT RAW] out_time=00:54:52.777958\n[STDOUT RAW] dup_frames=0\n[STDOUT RAW] drop_frames=0\n[STDOUT RAW] speed= 177x\n[STDOUT RAW] progress=continue\n[STDERR RAW] size=   51200KiB time=00:54:52.77 bitrate= 127.4kbits/s speed= 177x\n[STDOUT RAW] bitrate= 127.9kbits/s\n[STDOUT RAW] total_size=54263808\n[STDOUT RAW] out_time_us=3394177958\n[STDOUT RAW] out_time_ms=3394177958\n[STDOUT RAW] out_time=00:56:34.177958\n[STDOUT RAW] dup_frames=0\n[STDOUT RAW] drop_frames=0\n[STDOUT RAW] speed= 178x\n[STDOUT RAW] progress=continue\n[STDERR RAW] size=   52992KiB time=00:56:34.17 bitrate= 127.9kbits/s speed= 178x\n[STDERR RAW] size=   54104KiB time=00:57:42.56 bitrate= 128.0kbits/s speed= 178x\n[STDOUT RAW] bitrate= 128.0kbits/s\n[STDOUT RAW] total_size=55402412\n[STDOUT RAW] out_time_us=3462560667\n[STDOUT RAW] out_time_ms=3462560667\n[STDOUT RAW] out_time=00:57:42.560667\n[STDOUT RAW] dup_frames=0\n[STDOUT RAW] drop_frames=0\n[STDOUT RAW] speed= 178x\n[STDOUT RAW] progress=end\n[ConversionWorker] STDERR pipe closed signal received.\n[ConversionWorker] Detected 'progress=end' for 高冷17.wav\n[ConversionWorker] STDOUT pipe closed signal received.\n[ConversionWorker] Process finished and both stream pipes closed. Exiting loop.\n[ConversionWorker] Waiting for reader threads to join...\n[ConversionWorker] FFmpeg process ended. Return code: 0\n[ConversionWorker] Closing FFmpeg log file.\n